<?xml version="1.0" standalone="no"?>
<!DOCTYPE svg PUBLIC "-//W3C//DTD SVG 20010904//EN"
 "http://www.w3.org/TR/2001/REC-SVG-20010904/DTD/svg10.dtd">
<svg version="1.0" xmlns="http://www.w3.org/2000/svg"
 width="278.000000pt" height="326.000000pt" viewBox="0 0 278.000000 326.000000"
 preserveAspectRatio="xMidYMid meet">

<g transform="translate(0.000000,326.000000) scale(0.100000,-0.100000)"
fill="#000000" stroke="none">
<path d="M0 1630 l0 -1630 1390 0 1390 0 0 1630 0 1630 -1390 0 -1390 0 0
-1630z m2212 1499 c177 -59 281 -207 224 -317 -63 -119 -268 -199 -407 -159
-199 58 -260 261 -123 407 85 91 179 112 306 69z m-697 -579 c540 -37 847
-183 985 -464 52 -106 71 -179 77 -302 9 -174 -29 -311 -128 -458 -67 -100
-218 -246 -316 -307 -18 -11 -33 -25 -33 -30 0 -5 124 -176 276 -380 151 -204
274 -373 272 -375 -10 -9 -383 -25 -537 -22 l-174 3 -249 352 -249 353 -243 0
-243 0 -7 -46 c-3 -26 -6 -122 -6 -213 0 -91 -3 -229 -6 -306 l-7 -140 -326 3
c-179 2 -329 7 -333 10 -7 7 29 2296 36 2317 5 15 1015 19 1211 5z"/>
<path d="M950 1730 l0 -362 303 5 c324 5 389 13 493 61 84 39 121 72 155 141
26 54 31 74 31 141 0 97 -13 148 -52 202 -35 49 -87 85 -161 113 -107 41 -184
50 -481 56 l-288 6 0 -363z"/>
</g>
</svg>
